<svg id="图层_1" data-name="图层 1" xmlns="http://www.w3.org/2000/svg" viewBox="0 0 340.2 340.2"><title>VORON0.2 Texture </title><g opacity="0.42"><path d="M635.3,1055.1v338.2H297.1V1055.1H635.3m1-1H296.1v340.2H636.3V1054.1Z" transform="translate(-296.1 -1054.1)"/></g><path d="M310.8,1118.7v-47.3a2.6,2.6,0,0,1,2.6-2.7h46" transform="translate(-296.1 -1054.1)" fill="none" stroke="#fff" stroke-linejoin="round" stroke-width="1.5" stroke-dasharray="4 3"/><path d="M360.8,1379.6H313.5a2.7,2.7,0,0,1-2.7-2.6v-46.3" transform="translate(-296.1 -1054.1)" fill="none" stroke="#fff" stroke-linejoin="round" stroke-width="1.5" stroke-dasharray="4 3"/><line x1="282.3" y1="14.7" x2="323.5" y2="14.7" fill="none" stroke="#fff" stroke-linejoin="round" stroke-width="1.5" stroke-dasharray="3 3"/><line x1="282.3" y1="325.5" x2="323.5" y2="325.5" fill="none" stroke="#fff" stroke-linejoin="round" stroke-width="1.5" stroke-dasharray="3 3"/><path d="M327.5,1095.7h-2a1.4,1.4,0,0,1-1.3-1,1.3,1.3,0,0,1-.1-.6v-8.7a1.9,1.9,0,0,1,.1-.8,1.2,1.2,0,0,1,1-.8h9.6a1.5,1.5,0,0,1,1.3.9c0,.2.1.3.1.5v2h2.4a1.2,1.2,0,0,1,.9,1.1v9.6a1.1,1.1,0,0,1-1.1,1.1h-10a1.4,1.4,0,0,1-.9-1.3v-2Zm1.8,0a2.4,2.4,0,0,0,0,1.2c0,.2.1.4.3.4h7.7a.5.5,0,0,0,.5-.5h0v-7.4c0-.3-.2-.4-.5-.4s-.1-.1-.2-.1h-7.3c-.3.1-.5.2-.5.5a1.1,1.1,0,0,0,0,.8c0,.2.1.3.3.4h5.6a1.4,1.4,0,0,1,1,1.3v2.5a1.8,1.8,0,0,1-.4.9,1.3,1.3,0,0,1-1,.4h-5.5Zm5.1-8.6v-1.3c-.1-.2-.2-.3-.4-.3h-7.7a.4.4,0,0,0-.4.4v7.6c0,.3.2.4.4.5h7.6c.3-.1.5-.2.5-.5v-.8c0-.2-.1-.3-.3-.4h-5.5a1.2,1.2,0,0,1-1.1-1.2v-2.5a1.4,1.4,0,0,1,.8-1.3h6.1Z" transform="translate(-296.1 -1054.1)" fill="#fff"/><path d="M599.7,1369.1h-1.9a1.4,1.4,0,0,1-1.4-1,1.3,1.3,0,0,1-.1-.6v-8.8a1.7,1.7,0,0,1,.1-.7,1.5,1.5,0,0,1,1-.9h9.7a1.4,1.4,0,0,1,1.2.8,1.3,1.3,0,0,1,.1.6v2h2.4a1.2,1.2,0,0,1,.9,1.2v9.5a1.3,1.3,0,0,1-1.1,1.2h-9.9a1.4,1.4,0,0,1-1-1.3v-2Zm1.8,0a4.8,4.8,0,0,0,0,1.2c0,.2.1.3.3.4h7.7a.5.5,0,0,0,.5-.5v-7.5a.5.5,0,0,0-.4-.5H602a.5.5,0,0,0-.5.5v.8c0,.2.1.3.3.4h5.6a1.4,1.4,0,0,1,1,1.4v2.4a1.4,1.4,0,0,1-1.4,1.4h-5.5Zm5.1-8.6v-1.2h0c0-.2-.2-.3-.4-.3s-.1-.1-.2-.1h-7.3c-.1,0-.2,0-.2.1a.4.4,0,0,0-.4.4v7.6a.4.4,0,0,0,.4.4h7.7a.4.4,0,0,0,.4-.4c0-.3.1-.6,0-.8s-.1-.4-.3-.4h-5.5a1.3,1.3,0,0,1-1.1-1.2v-2.6a1.3,1.3,0,0,1,.8-1.2h6.1Z" transform="translate(-296.1 -1054.1)" fill="#fff"/><path d="M366.2,1083.8h2.2v5h.2l.9-.3h8.3a3.8,3.8,0,0,1,2.9,1.3,3.7,3.7,0,0,1,.9,1.9v3.3a3.7,3.7,0,0,1-1.1,2.7,4,4,0,0,1-2,1.1h-.6c-2.7,0-5.3-.1-7.9,0a4.2,4.2,0,0,1-1.5-.4,3.9,3.9,0,0,1-1.9-1.7,5,5,0,0,1-.4-1.3v-11.7Zm7.7,12.9h4.2a1.7,1.7,0,0,0,1.3-1.7v-3a1,1,0,0,0-.4-.7,1.8,1.8,0,0,0-1.5-.7h-7.7a1.9,1.9,0,0,0-1.4,1.7v2.7c0,.2,0,.3.1.4a1.7,1.7,0,0,0,1.7,1.3Z" transform="translate(-296.1 -1054.1)" fill="#fff"/><path d="M392.2,1098.9h-3.9a3.7,3.7,0,0,1-2.2-.8,3.4,3.4,0,0,1-1.5-2.3,3.1,3.1,0,0,1-.1-1v-2.4a4,4,0,0,1,2.8-3.8h8.8a3.7,3.7,0,0,1,2.9,1.3,3.3,3.3,0,0,1,.7,1.3,1.9,1.9,0,0,1,.2.8c.1,1,0,2.1,0,3.1a3,3,0,0,1-.2,1.3,2.4,2.4,0,0,1-.6,1.1H399a3.6,3.6,0,0,1-2.4,1.3h-4.4Zm0-2.2H396a1.3,1.3,0,0,0,1.2-.5,1.7,1.7,0,0,0,.5-1.3v-2.6a1.8,1.8,0,0,0-1.8-1.7h-8.1a1.7,1.7,0,0,0-1.2,1.6v3a1.8,1.8,0,0,0,1.8,1.4Z" transform="translate(-296.1 -1054.1)" fill="#fff"/><path d="M410.5,1098.9h-3.8a3.6,3.6,0,0,1-2.9-1.4,3.1,3.1,0,0,1-.9-1.8,1.5,1.5,0,0,1-.1-.7v-2.7a3.9,3.9,0,0,1,1.1-2.7,3.8,3.8,0,0,1,2.4-1.1h8.1l1.3.2a3.8,3.8,0,0,1,1.7,1.2,5.3,5.3,0,0,1,.8,1.7v3.5a3.6,3.6,0,0,1-1.2,2.7,3.5,3.5,0,0,1-2.1,1h-4.4Zm0-2.2h4.2a1.9,1.9,0,0,0,1.2-1.1,1.3,1.3,0,0,0,.1-.6v-2.7a1.2,1.2,0,0,0-.3-.9,1.7,1.7,0,0,0-1.5-.8h-7.5a1.5,1.5,0,0,0-1.2.5,1.5,1.5,0,0,0-.6,1.3v2.6a1.3,1.3,0,0,0,.1.6,1.8,1.8,0,0,0,1.7,1.1Z" transform="translate(-296.1 -1054.1)" fill="#fff"/><path d="M343.5,1098.8V1097h0a.3.3,0,0,1,.1-.2H348a1.7,1.7,0,0,0,1.8-1.5v-2.9a3.9,3.9,0,0,1,1.8-3.2,3.4,3.4,0,0,1,1.4-.5h5.4v2h-4.5a1.9,1.9,0,0,0-1.6,1,2.8,2.8,0,0,0-.1.9v2.4a4,4,0,0,1-1.1,2.7,3.4,3.4,0,0,1-1.7,1.1l-1,.2c-1.5-.1-3,0-4.5,0Z" transform="translate(-296.1 -1054.1)" fill="#fff"/><path d="M423.3,1098.8a.1.1,0,0,0-.1.1h-2.1v-6.4a2.9,2.9,0,0,1,.5-1.8,2.8,2.8,0,0,1,1.5-1.5,3.7,3.7,0,0,1,1.8-.5h4.5c.2,0,.2,0,.2.2v1.7h-4.5a1.7,1.7,0,0,0-1,.3,1.7,1.7,0,0,0-.8,1.4v6.5Z" transform="translate(-296.1 -1054.1)" fill="#fff"/><path d="M361.3,1088.5h2v9.9c0,.1.1.2,0,.3h-2a.3.3,0,0,0-.1-.2v-9.8A.6.6,0,0,1,361.3,1088.5Z" transform="translate(-296.1 -1054.1)" fill="#fff"/><g id="矩形_1_拷贝_19" data-name="矩形 1 拷贝 19"><path d="M636.3,1068.7a.5.5,0,0,0-.5-.5H625.3a.5.5,0,0,0-.5.5.5.5,0,0,0,.5.5h10.5A.5.5,0,0,0,636.3,1068.7Zm-.5,2.3h-5.9a.5.5,0,0,0-.5.5h0a.5.5,0,0,0,.5.5h5.9a.5.5,0,0,0,.5-.5h0A.5.5,0,0,0,635.8,1071Zm0,2.9h-5.9a.5.5,0,0,0-.5.4.5.5,0,0,0,.5.5h5.9a.5.5,0,0,0,.5-.5A.5.5,0,0,0,635.8,1073.9Zm0,2.8h-5.9a.5.5,0,0,0-.5.5h0a.5.5,0,0,0,.5.4h5.9a.5.5,0,0,0,.5-.4h0A.5.5,0,0,0,635.8,1076.7Zm0,2.8h-5.9a.5.5,0,0,0,0,1h5.9a.5.5,0,0,0,0-1Zm0,2.9h-7.7c-.2,0-.5.2-.5.4a.5.5,0,0,0,.5.5h7.7a.5.5,0,0,0,.5-.5A.5.5,0,0,0,635.8,1082.4Zm0,2.8h-5.9a.5.5,0,0,0-.5.5.5.5,0,0,0,.5.4h5.9a.5.5,0,0,0,.5-.4A.5.5,0,0,0,635.8,1085.2Zm0,2.8h-5.9a.5.5,0,0,0,0,1h5.9a.5.5,0,0,0,0-1Zm0,2.9h-5.9a.5.5,0,0,0-.5.4h0a.5.5,0,0,0,.5.5h5.9a.5.5,0,0,0,.5-.5h0A.5.5,0,0,0,635.8,1090.9Zm0,2.8h-5.9a.5.5,0,0,0-.5.5.5.5,0,0,0,.5.4h5.9a.5.5,0,0,0,.5-.4A.5.5,0,0,0,635.8,1093.7Z" transform="translate(-296.1 -1054.1)"/><path d="M635.8,1068.2H625.3a.5.5,0,0,0-.5.5.5.5,0,0,0,.5.5h10.5a.5.5,0,0,0,.5-.5.5.5,0,0,0-.5-.5Zm0,2.8h-5.9a.5.5,0,0,0-.5.5h0a.5.5,0,0,0,.5.5h5.9a.5.5,0,0,0,.5-.5h0a.5.5,0,0,0-.5-.5Zm0,2.9h-5.9a.5.5,0,0,0-.5.4.5.5,0,0,0,.5.5h5.9a.5.5,0,0,0,.5-.5.5.5,0,0,0-.5-.4Zm0,2.8h-5.9a.5.5,0,0,0-.5.5h0a.5.5,0,0,0,.5.4h5.9a.5.5,0,0,0,.5-.4h0a.5.5,0,0,0-.5-.5Zm0,2.8h-5.9a.5.5,0,0,0,0,1h5.9a.5.5,0,0,0,0-1Zm0,2.9h-7.7c-.2,0-.5.2-.5.4a.5.5,0,0,0,.5.5h7.7a.5.5,0,0,0,.5-.5.5.5,0,0,0-.5-.4Zm0,2.8h-5.9a.5.5,0,0,0-.5.5.5.5,0,0,0,.5.4h5.9a.5.5,0,0,0,.5-.4.5.5,0,0,0-.5-.5Zm0,2.8h-5.9a.5.5,0,0,0,0,1h5.9a.5.5,0,0,0,0-1Zm0,2.9h-5.9a.5.5,0,0,0-.5.4h0a.5.5,0,0,0,.5.5h5.9a.5.5,0,0,0,.5-.5h0a.5.5,0,0,0-.5-.4Zm0,2.8h-5.9a.5.5,0,0,0-.5.5.5.5,0,0,0,.5.4h5.9a.5.5,0,0,0,.5-.4.5.5,0,0,0-.5-.5Z" transform="translate(-296.1 -1054.1)" fill="#fff"/></g><g id="矩形_1_拷贝_20" data-name="矩形 1 拷贝 20"><path d="M636.3,1097a.5.5,0,0,0-.5-.5H625.3a.5.5,0,0,0,0,1h10.5A.5.5,0,0,0,636.3,1097Zm-.5,2.3h-5.9a.5.5,0,0,0-.5.5h0a.5.5,0,0,0,.5.5h5.9a.5.5,0,0,0,.5-.5h0A.5.5,0,0,0,635.8,1099.3Zm0,2.9h-5.9a.5.5,0,0,0-.5.4.5.5,0,0,0,.5.5h5.9a.5.5,0,0,0,.5-.5A.5.5,0,0,0,635.8,1102.2Zm0,2.8h-5.9a.5.5,0,0,0-.5.5h0a.5.5,0,0,0,.5.5h5.9a.5.5,0,0,0,.5-.5h0A.5.5,0,0,0,635.8,1105Zm0,2.8h-5.9a.5.5,0,0,0-.5.5h0a.5.5,0,0,0,.5.5h5.9a.5.5,0,0,0,.5-.5h0A.5.5,0,0,0,635.8,1107.8Zm0,2.9h-7.7c-.2,0-.5.2-.5.4a.5.5,0,0,0,.5.5h7.7a.5.5,0,0,0,.5-.5A.5.5,0,0,0,635.8,1110.7Zm0,2.8h-5.9a.5.5,0,0,0-.5.5h0a.5.5,0,0,0,.5.4h5.9a.5.5,0,0,0,.5-.4h0A.5.5,0,0,0,635.8,1113.5Zm0,2.8h-5.9a.5.5,0,0,0-.5.5h0a.5.5,0,0,0,.5.5h5.9a.5.5,0,0,0,.5-.5h0A.5.5,0,0,0,635.8,1116.3Zm0,2.9h-5.9a.5.5,0,0,0-.5.4.5.5,0,0,0,.5.5h5.9a.5.5,0,0,0,.5-.5A.5.5,0,0,0,635.8,1119.2Zm0,2.8h-5.9a.5.5,0,0,0-.5.5h0a.5.5,0,0,0,.5.4h5.9a.5.5,0,0,0,.5-.4h0A.5.5,0,0,0,635.8,1122Z" transform="translate(-296.1 -1054.1)"/><path d="M635.8,1096.5H625.3a.5.5,0,0,0,0,1h10.5a.5.5,0,0,0,0-1Zm0,2.8h-5.9a.5.5,0,0,0-.5.5h0a.5.5,0,0,0,.5.5h5.9a.5.5,0,0,0,.5-.5h0a.5.5,0,0,0-.5-.5Zm0,2.9h-5.9a.5.5,0,0,0-.5.4.5.5,0,0,0,.5.5h5.9a.5.5,0,0,0,.5-.5.5.5,0,0,0-.5-.4Zm0,2.8h-5.9a.5.5,0,0,0-.5.5h0a.5.5,0,0,0,.5.5h5.9a.5.5,0,0,0,.5-.5h0a.5.5,0,0,0-.5-.5Zm0,2.8h-5.9a.5.5,0,0,0-.5.5h0a.5.5,0,0,0,.5.5h5.9a.5.5,0,0,0,.5-.5h0a.5.5,0,0,0-.5-.5Zm0,2.9h-7.7c-.2,0-.5.2-.5.4a.5.5,0,0,0,.5.5h7.7a.5.5,0,0,0,.5-.5.5.5,0,0,0-.5-.4Zm0,2.8h-5.9a.5.5,0,0,0-.5.5h0a.5.5,0,0,0,.5.4h5.9a.5.5,0,0,0,.5-.4h0a.5.5,0,0,0-.5-.5Zm0,2.8h-5.9a.5.5,0,0,0-.5.5h0a.5.5,0,0,0,.5.5h5.9a.5.5,0,0,0,.5-.5h0a.5.5,0,0,0-.5-.5Zm0,2.9h-5.9a.5.5,0,0,0-.5.4.5.5,0,0,0,.5.5h5.9a.5.5,0,0,0,.5-.5.5.5,0,0,0-.5-.4Zm0,2.8h-5.9a.5.5,0,0,0-.5.5h0a.5.5,0,0,0,.5.4h5.9a.5.5,0,0,0,.5-.4h0a.5.5,0,0,0-.5-.5Z" transform="translate(-296.1 -1054.1)" fill="#fff"/></g><g id="矩形_1_拷贝_21" data-name="矩形 1 拷贝 21"><path d="M636.3,1125.3a.5.5,0,0,0-.5-.5H625.3a.5.5,0,0,0,0,1h10.5A.5.5,0,0,0,636.3,1125.3Zm-.5,2.4h-5.9a.5.5,0,0,0-.5.4.5.5,0,0,0,.5.5h5.9a.5.5,0,0,0,.5-.5A.5.5,0,0,0,635.8,1127.7Zm0,2.8h-5.9a.5.5,0,0,0-.5.5.5.5,0,0,0,.5.4h5.9a.5.5,0,0,0,.5-.4A.5.5,0,0,0,635.8,1130.5Zm0,2.8h-5.9a.5.5,0,0,0-.5.5.5.5,0,0,0,.5.5h5.9a.5.5,0,0,0,.5-.5A.5.5,0,0,0,635.8,1133.3Zm0,2.8h-5.9a.5.5,0,0,0-.5.5h0a.5.5,0,0,0,.5.5h5.9a.5.5,0,0,0,.5-.5h0A.5.5,0,0,0,635.8,1136.1Zm0,2.9h-7.7c-.2,0-.5.2-.5.4a.5.5,0,0,0,.5.5h7.7a.5.5,0,0,0,.5-.5A.5.5,0,0,0,635.8,1139Zm0,2.8h-5.9a.5.5,0,0,0-.5.5h0a.5.5,0,0,0,.5.4h5.9a.5.5,0,0,0,.5-.4h0A.5.5,0,0,0,635.8,1141.8Zm0,2.8h-5.9a.5.5,0,0,0,0,1h5.9a.5.5,0,0,0,0-1Zm0,2.9h-5.9a.5.5,0,0,0-.5.4.5.5,0,0,0,.5.5h5.9a.5.5,0,0,0,.5-.5A.5.5,0,0,0,635.8,1147.5Zm0,2.8h-5.9a.5.5,0,0,0-.5.5h0a.5.5,0,0,0,.5.4h5.9a.5.5,0,0,0,.5-.4h0A.5.5,0,0,0,635.8,1150.3Z" transform="translate(-296.1 -1054.1)"/><path d="M635.8,1124.8H625.3a.5.5,0,0,0,0,1h10.5a.5.5,0,0,0,0-1Zm0,2.9h-5.9a.5.5,0,0,0-.5.4.5.5,0,0,0,.5.5h5.9a.5.5,0,0,0,.5-.5.5.5,0,0,0-.5-.4Zm0,2.8h-5.9a.5.5,0,0,0-.5.5.5.5,0,0,0,.5.4h5.9a.5.5,0,0,0,.5-.4.5.5,0,0,0-.5-.5Zm0,2.8h-5.9a.5.5,0,0,0-.5.5.5.5,0,0,0,.5.5h5.9a.5.5,0,0,0,.5-.5.5.5,0,0,0-.5-.5Zm0,2.8h-5.9a.5.5,0,0,0-.5.5h0a.5.5,0,0,0,.5.5h5.9a.5.5,0,0,0,.5-.5h0a.5.5,0,0,0-.5-.5Zm0,2.9h-7.7c-.2,0-.5.2-.5.4a.5.5,0,0,0,.5.5h7.7a.5.5,0,0,0,.5-.5.5.5,0,0,0-.5-.4Zm0,2.8h-5.9a.5.5,0,0,0-.5.5h0a.5.5,0,0,0,.5.4h5.9a.5.5,0,0,0,.5-.4h0a.5.5,0,0,0-.5-.5Zm0,2.8h-5.9a.5.5,0,0,0,0,1h5.9a.5.5,0,0,0,0-1Zm0,2.9h-5.9a.5.5,0,0,0-.5.4.5.5,0,0,0,.5.5h5.9a.5.5,0,0,0,.5-.5.5.5,0,0,0-.5-.4Zm0,2.8h-5.9a.5.5,0,0,0-.5.5h0a.5.5,0,0,0,.5.4h5.9a.5.5,0,0,0,.5-.4h0a.5.5,0,0,0-.5-.5Z" transform="translate(-296.1 -1054.1)" fill="#fff"/></g><g id="矩形_1_拷贝_22" data-name="矩形 1 拷贝 22"><path d="M635.8,1153.1H625.3a.5.5,0,0,0-.5.5h0a.5.5,0,0,0,.5.5h10.5a.5.5,0,0,0,.5-.5h0A.5.5,0,0,0,635.8,1153.1Zm0,2.9h-5.9a.5.5,0,0,0-.5.4.5.5,0,0,0,.5.5h5.9a.5.5,0,0,0,.5-.5A.5.5,0,0,0,635.8,1156Zm0,2.8h-5.9a.5.5,0,0,0-.5.5h0a.5.5,0,0,0,.5.4h5.9a.5.5,0,0,0,.5-.4h0A.5.5,0,0,0,635.8,1158.8Zm0,2.8h-5.9a.5.5,0,0,0-.5.5.5.5,0,0,0,.5.5h5.9a.5.5,0,0,0,.5-.5A.5.5,0,0,0,635.8,1161.6Zm0,2.8h-5.9a.5.5,0,0,0-.5.5.5.5,0,0,0,.5.5h5.9a.5.5,0,0,0,.5-.5A.5.5,0,0,0,635.8,1164.4Zm0,2.9h-9.5a.4.4,0,0,0-.4.4h0a.4.4,0,0,0,.4.4h9.5a.5.5,0,0,0,.5-.4h0A.5.5,0,0,0,635.8,1167.3Zm0,2.8h-5.9a.5.5,0,0,0-.5.5h0a.5.5,0,0,0,.5.4h5.9a.5.5,0,0,0,.5-.4h0A.5.5,0,0,0,635.8,1170.1Zm0,2.8h-5.9a.5.5,0,0,0-.5.5h0a.5.5,0,0,0,.5.5h5.9a.5.5,0,0,0,.5-.5h0A.5.5,0,0,0,635.8,1172.9Zm0,2.9h-5.9a.5.5,0,0,0-.5.4h0a.5.5,0,0,0,.5.5h5.9a.5.5,0,0,0,.5-.5h0A.5.5,0,0,0,635.8,1175.8Zm0,2.8h-5.9a.5.5,0,0,0-.5.5.5.5,0,0,0,.5.4h5.9a.5.5,0,0,0,.5-.4A.5.5,0,0,0,635.8,1178.6Z" transform="translate(-296.1 -1054.1)"/><path d="M635.8,1153.1H625.3a.5.5,0,0,0-.5.5h0a.5.5,0,0,0,.5.5h10.5a.5.5,0,0,0,.5-.5h0a.5.5,0,0,0-.5-.5Zm0,2.9h-5.9a.5.5,0,0,0-.5.4.5.5,0,0,0,.5.5h5.9a.5.5,0,0,0,.5-.5.5.5,0,0,0-.5-.4Zm0,2.8h-5.9a.5.5,0,0,0-.5.5h0a.5.5,0,0,0,.5.4h5.9a.5.5,0,0,0,.5-.4h0a.5.5,0,0,0-.5-.5Zm0,2.8h-5.9a.5.5,0,0,0-.5.5.5.5,0,0,0,.5.5h5.9a.5.5,0,0,0,.5-.5.5.5,0,0,0-.5-.5Zm0,2.8h-5.9a.5.5,0,0,0-.5.5.5.5,0,0,0,.5.5h5.9a.5.5,0,0,0,.5-.5.5.5,0,0,0-.5-.5Zm0,2.9h-9.5a.4.4,0,0,0-.4.4h0a.4.4,0,0,0,.4.4h9.5a.5.5,0,0,0,.5-.4h0a.5.5,0,0,0-.5-.4Zm0,2.8h-5.9a.5.5,0,0,0-.5.5h0a.5.5,0,0,0,.5.4h5.9a.5.5,0,0,0,.5-.4h0a.5.5,0,0,0-.5-.5Zm0,2.8h-5.9a.5.5,0,0,0-.5.5h0a.5.5,0,0,0,.5.5h5.9a.5.5,0,0,0,.5-.5h0a.5.5,0,0,0-.5-.5Zm0,2.9h-5.9a.5.5,0,0,0-.5.4.5.5,0,0,0,.5.5h5.9a.5.5,0,0,0,.5-.5.5.5,0,0,0-.5-.4Zm0,2.8h-5.9a.5.5,0,0,0-.5.5.5.5,0,0,0,.5.4h5.9a.5.5,0,0,0,.5-.4.5.5,0,0,0-.5-.5Z" transform="translate(-296.1 -1054.1)" fill="#fff"/></g><g id="矩形_1_拷贝_23" data-name="矩形 1 拷贝 23"><path d="M635.8,1181.4H625.3a.5.5,0,0,0-.5.5h0a.5.5,0,0,0,.5.5h10.5a.5.5,0,0,0,.5-.5h0A.5.5,0,0,0,635.8,1181.4Zm0,2.9h-5.9a.5.5,0,0,0-.5.4.5.5,0,0,0,.5.5h5.9a.5.5,0,0,0,.5-.5A.5.5,0,0,0,635.8,1184.3Zm0,2.8h-5.9a.5.5,0,0,0-.5.5h0a.5.5,0,0,0,.5.4h5.9a.5.5,0,0,0,.5-.4h0A.5.5,0,0,0,635.8,1187.1Zm0,2.8h-5.9a.5.5,0,0,0,0,1h5.9a.5.5,0,0,0,0-1Zm0,2.9h-5.9a.5.5,0,0,0-.5.4.5.5,0,0,0,.5.5h5.9a.5.5,0,0,0,.5-.5A.5.5,0,0,0,635.8,1192.8Zm0,2.8h-9.5a.5.5,0,0,0-.4.5h0a.4.4,0,0,0,.4.4h9.5a.5.5,0,0,0,.5-.4h0A.5.5,0,0,0,635.8,1195.6Zm0,2.8h-5.9a.5.5,0,0,0-.5.5.5.5,0,0,0,.5.5h5.9a.5.5,0,0,0,.5-.5A.5.5,0,0,0,635.8,1198.4Zm0,2.8h-5.9a.5.5,0,0,0-.5.5h0a.5.5,0,0,0,.5.5h5.9a.5.5,0,0,0,.5-.5h0A.5.5,0,0,0,635.8,1201.2Zm0,2.9h-5.9a.5.5,0,0,0-.5.4h0a.5.5,0,0,0,.5.5h5.9a.5.5,0,0,0,.5-.5h0A.5.5,0,0,0,635.8,1204.1Zm0,2.8h-5.9a.5.5,0,0,0-.5.5.5.5,0,0,0,.5.4h5.9a.5.5,0,0,0,.5-.4A.5.5,0,0,0,635.8,1206.9Z" transform="translate(-296.1 -1054.1)"/><path d="M635.8,1181.4H625.3a.5.5,0,0,0-.5.5h0a.5.5,0,0,0,.5.5h10.5a.5.5,0,0,0,.5-.5h0a.5.5,0,0,0-.5-.5Zm0,2.9h-5.9a.5.5,0,0,0-.5.4.5.5,0,0,0,.5.5h5.9a.5.5,0,0,0,.5-.5.5.5,0,0,0-.5-.4Zm0,2.8h-5.9a.5.5,0,0,0-.5.5h0a.5.5,0,0,0,.5.4h5.9a.5.5,0,0,0,.5-.4h0a.5.5,0,0,0-.5-.5Zm0,2.8h-5.9a.5.5,0,0,0,0,1h5.9a.5.5,0,0,0,0-1Zm0,2.9h-5.9a.5.5,0,0,0-.5.4.5.5,0,0,0,.5.5h5.9a.5.5,0,0,0,.5-.5.5.5,0,0,0-.5-.4Zm0,2.8h-9.5a.5.5,0,0,0-.4.5h0a.4.4,0,0,0,.4.4h9.5a.5.5,0,0,0,.5-.4h0a.5.5,0,0,0-.5-.5Zm0,2.8h-5.9a.5.5,0,0,0-.5.5.5.5,0,0,0,.5.5h5.9a.5.5,0,0,0,.5-.5.5.5,0,0,0-.5-.5Zm0,2.8h-5.9a.5.5,0,0,0-.5.5h0a.5.5,0,0,0,.5.5h5.9a.5.5,0,0,0,.5-.5h0a.5.5,0,0,0-.5-.5Zm0,2.9h-5.9a.5.5,0,0,0-.5.4h0a.5.5,0,0,0,.5.5h5.9a.5.5,0,0,0,.5-.5h0a.5.5,0,0,0-.5-.4Zm0,2.8h-5.9a.5.5,0,0,0-.5.5.5.5,0,0,0,.5.4h5.9a.5.5,0,0,0,.5-.4.5.5,0,0,0-.5-.5Z" transform="translate(-296.1 -1054.1)" fill="#fff"/></g><g id="矩形_1_拷贝_24" data-name="矩形 1 拷贝 24"><path d="M636.3,1210.2a.5.5,0,0,0-.5-.5H625.3a.5.5,0,0,0,0,1h10.5A.5.5,0,0,0,636.3,1210.2Zm-.5,2.4h-5.9a.5.5,0,0,0-.5.4h0a.5.5,0,0,0,.5.5h5.9a.5.5,0,0,0,.5-.5h0A.5.5,0,0,0,635.8,1212.6Zm0,2.8h-5.9a.5.5,0,0,0-.5.5.5.5,0,0,0,.5.4h5.9a.5.5,0,0,0,.5-.4A.5.5,0,0,0,635.8,1215.4Zm0,2.8h-5.9a.5.5,0,0,0-.5.5h0a.5.5,0,0,0,.5.5h5.9a.5.5,0,0,0,.5-.5h0A.5.5,0,0,0,635.8,1218.2Zm0,2.9h-5.9a.5.5,0,0,0-.5.4.5.5,0,0,0,.5.5h5.9a.5.5,0,0,0,.5-.5A.5.5,0,0,0,635.8,1221.1Zm0,2.8h-5.9a.5.5,0,0,0-.5.5.5.5,0,0,0,.5.4h5.9a.5.5,0,0,0,.5-.4A.5.5,0,0,0,635.8,1223.9Zm0,2.8h-5.9a.5.5,0,0,0-.5.5h0a.5.5,0,0,0,.5.5h5.9a.5.5,0,0,0,.5-.5h0A.5.5,0,0,0,635.8,1226.7Zm0,2.8h-5.9a.5.5,0,0,0-.5.5h0a.5.5,0,0,0,.5.5h5.9a.5.5,0,0,0,.5-.5h0A.5.5,0,0,0,635.8,1229.5Zm0,2.9h-5.9a.5.5,0,0,0-.5.4h0a.5.5,0,0,0,.5.5h5.9a.5.5,0,0,0,.5-.5h0A.5.5,0,0,0,635.8,1232.4Zm0,2.8h-5.9a.5.5,0,0,0-.5.5h0a.5.5,0,0,0,.5.5h5.9a.5.5,0,0,0,.5-.5h0A.5.5,0,0,0,635.8,1235.2Z" transform="translate(-296.1 -1054.1)"/><path d="M635.8,1209.7H625.3a.5.5,0,0,0,0,1h10.5a.5.5,0,0,0,0-1Zm0,2.9h-5.9a.5.5,0,0,0-.5.4h0a.5.5,0,0,0,.5.5h5.9a.5.5,0,0,0,.5-.5h0a.5.5,0,0,0-.5-.4Zm0,2.8h-5.9a.5.5,0,0,0-.5.5.5.5,0,0,0,.5.4h5.9a.5.5,0,0,0,.5-.4.5.5,0,0,0-.5-.5Zm0,2.8h-5.9a.5.5,0,0,0-.5.5h0a.5.5,0,0,0,.5.5h5.9a.5.5,0,0,0,.5-.5h0a.5.5,0,0,0-.5-.5Zm0,2.9h-5.9a.5.5,0,0,0-.5.4.5.5,0,0,0,.5.5h5.9a.5.5,0,0,0,.5-.5.5.5,0,0,0-.5-.4Zm0,2.8h-5.9a.5.5,0,0,0-.5.5.5.5,0,0,0,.5.4h5.9a.5.5,0,0,0,.5-.4.5.5,0,0,0-.5-.5Zm0,2.8h-5.9a.5.5,0,0,0-.5.5.5.5,0,0,0,.5.5h5.9a.5.5,0,0,0,.5-.5.5.5,0,0,0-.5-.5Zm0,2.8h-5.9a.5.5,0,0,0-.5.5h0a.5.5,0,0,0,.5.5h5.9a.5.5,0,0,0,.5-.5h0a.5.5,0,0,0-.5-.5Zm0,2.9h-5.9a.5.5,0,0,0-.5.4h0a.5.5,0,0,0,.5.5h5.9a.5.5,0,0,0,.5-.5h0a.5.5,0,0,0-.5-.4Zm0,2.8h-5.9a.5.5,0,0,0-.5.5.5.5,0,0,0,.5.5h5.9a.5.5,0,0,0,.5-.5.5.5,0,0,0-.5-.5Z" transform="translate(-296.1 -1054.1)" fill="#fff"/></g><g id="矩形_1_拷贝_20-2" data-name="矩形 1 拷贝 20"><path d="M636.3,1238.5a.5.5,0,0,0-.5-.5H625.3a.5.5,0,0,0,0,1h10.5A.5.5,0,0,0,636.3,1238.5Zm-.5,2.4h-5.9a.5.5,0,0,0-.5.4h0a.5.5,0,0,0,.5.5h5.9a.5.5,0,0,0,.5-.5h0A.5.5,0,0,0,635.8,1240.9Zm0,2.8h-5.9a.5.5,0,0,0-.5.5.5.5,0,0,0,.5.4h5.9a.5.5,0,0,0,.5-.4A.5.5,0,0,0,635.8,1243.7Zm0,2.8h-5.9a.5.5,0,0,0-.5.5h0a.5.5,0,0,0,.5.5h5.9a.5.5,0,0,0,.5-.5h0A.5.5,0,0,0,635.8,1246.5Zm0,2.9h-5.9a.5.5,0,0,0-.5.4h0a.5.5,0,0,0,.5.5h5.9a.5.5,0,0,0,.5-.5h0A.5.5,0,0,0,635.8,1249.4Zm0,2.8h-7.7a.5.5,0,0,0-.5.5c0,.2.3.4.5.4h7.7a.5.5,0,0,0,.5-.4A.5.5,0,0,0,635.8,1252.2Zm0,2.8h-5.9a.5.5,0,0,0-.5.5h0a.5.5,0,0,0,.5.5h5.9a.5.5,0,0,0,.5-.5h0A.5.5,0,0,0,635.8,1255Zm0,2.8h-5.9a.5.5,0,0,0-.5.5h0a.5.5,0,0,0,.5.5h5.9a.5.5,0,0,0,.5-.5h0A.5.5,0,0,0,635.8,1257.8Zm0,2.9h-5.9a.5.5,0,0,0-.5.5.5.5,0,0,0,.5.4h5.9a.5.5,0,0,0,.5-.4A.5.5,0,0,0,635.8,1260.7Zm0,2.8h-5.9a.5.5,0,0,0-.5.5h0a.5.5,0,0,0,.5.5h5.9a.5.5,0,0,0,.5-.5h0A.5.5,0,0,0,635.8,1263.5Z" transform="translate(-296.1 -1054.1)"/><path d="M635.8,1238H625.3a.5.5,0,0,0,0,1h10.5a.5.5,0,0,0,0-1Zm0,2.9h-5.9a.5.5,0,0,0-.5.4h0a.5.5,0,0,0,.5.5h5.9a.5.5,0,0,0,.5-.5h0a.5.5,0,0,0-.5-.4Zm0,2.8h-5.9a.5.5,0,0,0-.5.5.5.5,0,0,0,.5.4h5.9a.5.5,0,0,0,.5-.4.5.5,0,0,0-.5-.5Zm0,2.8h-5.9a.5.5,0,0,0-.5.5h0a.5.5,0,0,0,.5.5h5.9a.5.5,0,0,0,.5-.5h0a.5.5,0,0,0-.5-.5Zm0,2.9h-5.9a.5.5,0,0,0-.5.4h0a.5.5,0,0,0,.5.5h5.9a.5.5,0,0,0,.5-.5h0a.5.5,0,0,0-.5-.4Zm0,2.8h-7.7a.5.5,0,0,0-.5.5c0,.2.3.4.5.4h7.7a.5.5,0,0,0,.5-.4.5.5,0,0,0-.5-.5Zm0,2.8h-5.9a.5.5,0,0,0-.5.5h0a.5.5,0,0,0,.5.5h5.9a.5.5,0,0,0,.5-.5h0a.5.5,0,0,0-.5-.5Zm0,2.8h-5.9a.5.5,0,0,0-.5.5.5.5,0,0,0,.5.5h5.9a.5.5,0,0,0,.5-.5.5.5,0,0,0-.5-.5Zm0,2.9h-5.9a.5.5,0,0,0-.5.5.5.5,0,0,0,.5.4h5.9a.5.5,0,0,0,.5-.4.5.5,0,0,0-.5-.5Zm0,2.8h-5.9a.5.5,0,0,0-.5.5h0a.5.5,0,0,0,.5.5h5.9a.5.5,0,0,0,.5-.5h0a.5.5,0,0,0-.5-.5Z" transform="translate(-296.1 -1054.1)" fill="#fff"/></g><g id="矩形_1_拷贝_26" data-name="矩形 1 拷贝 26"><path d="M636.3,1266.8a.5.5,0,0,0-.5-.5H625.3a.5.5,0,0,0-.5.5.5.5,0,0,0,.5.5h10.5A.5.5,0,0,0,636.3,1266.8Zm-.5,2.4h-5.9a.5.5,0,0,0-.5.4.5.5,0,0,0,.5.5h5.9a.5.5,0,0,0,.5-.5A.5.5,0,0,0,635.8,1269.2Zm0,2.8h-5.9a.5.5,0,0,0-.5.5h0a.5.5,0,0,0,.5.4h5.9a.5.5,0,0,0,.5-.4h0A.5.5,0,0,0,635.8,1272Zm0,2.8h-5.9a.5.5,0,1,0,0,1h5.9a.5.5,0,0,0,0-1Zm0,2.9h-5.9a.5.5,0,0,0-.5.4h0a.5.5,0,0,0,.5.5h5.9a.5.5,0,0,0,.5-.5h0A.5.5,0,0,0,635.8,1277.7Zm0,2.8h-7.7a.5.5,0,0,0-.5.5c0,.2.3.4.5.4h7.7a.5.5,0,0,0,.5-.4A.5.5,0,0,0,635.8,1280.5Zm0,2.8h-5.9a.5.5,0,0,0-.5.5h0a.5.5,0,0,0,.5.5h5.9a.5.5,0,0,0,.5-.5h0A.5.5,0,0,0,635.8,1283.3Zm0,2.9h-5.9a.5.5,0,0,0-.5.4.5.5,0,0,0,.5.5h5.9a.5.5,0,0,0,.5-.5A.5.5,0,0,0,635.8,1286.2Zm0,2.8h-5.9a.5.5,0,0,0-.5.5.5.5,0,0,0,.5.4h5.9a.5.5,0,0,0,.5-.4A.5.5,0,0,0,635.8,1289Zm0,2.8h-5.9a.5.5,0,0,0-.5.5h0a.5.5,0,0,0,.5.5h5.9a.5.5,0,0,0,.5-.5h0A.5.5,0,0,0,635.8,1291.8Z" transform="translate(-296.1 -1054.1)"/><path d="M635.8,1266.3H625.3a.5.5,0,0,0-.5.5.5.5,0,0,0,.5.5h10.5a.5.5,0,0,0,.5-.5.5.5,0,0,0-.5-.5Zm0,2.9h-5.9a.5.5,0,0,0-.5.4.5.5,0,0,0,.5.5h5.9a.5.5,0,0,0,.5-.5.5.5,0,0,0-.5-.4Zm0,2.8h-5.9a.5.5,0,0,0-.5.5h0a.5.5,0,0,0,.5.4h5.9a.5.5,0,0,0,.5-.4h0a.5.5,0,0,0-.5-.5Zm0,2.8h-5.9a.5.5,0,1,0,0,1h5.9a.5.5,0,0,0,0-1Zm0,2.9h-5.9a.5.5,0,0,0-.5.4h0a.5.5,0,0,0,.5.5h5.9a.5.5,0,0,0,.5-.5h0a.5.5,0,0,0-.5-.4Zm0,2.8h-7.7a.5.5,0,0,0-.5.5c0,.2.3.4.5.4h7.7a.5.5,0,0,0,.5-.4.5.5,0,0,0-.5-.5Zm0,2.8h-5.9a.5.5,0,0,0-.5.5h0a.5.5,0,0,0,.5.5h5.9a.5.5,0,0,0,.5-.5h0a.5.5,0,0,0-.5-.5Zm0,2.9h-5.9a.5.5,0,0,0-.5.4.5.5,0,0,0,.5.5h5.9a.5.5,0,0,0,.5-.5.5.5,0,0,0-.5-.4Zm0,2.8h-5.9a.5.5,0,0,0-.5.5.5.5,0,0,0,.5.4h5.9a.5.5,0,0,0,.5-.4.5.5,0,0,0-.5-.5Zm0,2.8h-5.9a.5.5,0,0,0-.5.5h0a.5.5,0,0,0,.5.5h5.9a.5.5,0,0,0,.5-.5h0a.5.5,0,0,0-.5-.5Z" transform="translate(-296.1 -1054.1)" fill="#fff"/></g><g id="矩形_1_拷贝_27" data-name="矩形 1 拷贝 27"><path d="M635.8,1294.6H625.3a.5.5,0,0,0-.5.5h0a.5.5,0,0,0,.5.5h10.5a.5.5,0,0,0,.5-.5h0A.5.5,0,0,0,635.8,1294.6Zm0,2.9h-5.9a.5.5,0,0,0-.5.4.5.5,0,0,0,.5.5h5.9a.5.5,0,0,0,.5-.5A.5.5,0,0,0,635.8,1297.5Zm0,2.8h-5.9a.5.5,0,0,0-.5.5h0a.5.5,0,0,0,.5.4h5.9a.5.5,0,0,0,.5-.4h0A.5.5,0,0,0,635.8,1300.3Zm0,2.8h-5.9a.5.5,0,0,0,0,1h5.9a.5.5,0,0,0,0-1Zm0,2.9h-5.9a.5.5,0,0,0-.5.4.5.5,0,0,0,.5.5h5.9a.5.5,0,0,0,.5-.5A.5.5,0,0,0,635.8,1306Zm0,2.8h-7.7a.5.5,0,0,0-.5.5h0c0,.2.3.4.5.4h7.7a.5.5,0,0,0,.5-.4h0A.5.5,0,0,0,635.8,1308.8Zm0,2.8h-5.9a.5.5,0,0,0,0,1h5.9a.5.5,0,0,0,0-1Zm0,2.9h-5.9a.5.5,0,0,0-.5.4h0a.5.5,0,0,0,.5.5h5.9a.5.5,0,0,0,.5-.5h0A.5.5,0,0,0,635.8,1314.5Zm0,2.8h-5.9a.5.5,0,0,0-.5.5.5.5,0,0,0,.5.4h5.9a.5.5,0,0,0,.5-.4A.5.5,0,0,0,635.8,1317.3Zm0,2.8h-5.9a.5.5,0,0,0,0,1h5.9a.5.5,0,0,0,0-1Z" transform="translate(-296.1 -1054.1)"/><path d="M635.8,1294.6H625.3a.5.5,0,0,0-.5.5h0a.5.5,0,0,0,.5.5h10.5a.5.5,0,0,0,.5-.5h0a.5.5,0,0,0-.5-.5Zm0,2.9h-5.9a.5.5,0,0,0-.5.4.5.5,0,0,0,.5.5h5.9a.5.5,0,0,0,.5-.5.5.5,0,0,0-.5-.4Zm0,2.8h-5.9a.5.5,0,0,0-.5.5h0a.5.5,0,0,0,.5.4h5.9a.5.5,0,0,0,.5-.4h0a.5.5,0,0,0-.5-.5Zm0,2.8h-5.9a.5.5,0,0,0,0,1h5.9a.5.5,0,0,0,0-1Zm0,2.9h-5.9a.5.5,0,0,0-.5.4.5.5,0,0,0,.5.5h5.9a.5.5,0,0,0,.5-.5.5.5,0,0,0-.5-.4Zm0,2.8h-7.7a.5.5,0,0,0-.5.5h0c0,.2.3.4.5.4h7.7a.5.5,0,0,0,.5-.4h0a.5.5,0,0,0-.5-.5Zm0,2.8h-5.9a.5.5,0,0,0,0,1h5.9a.5.5,0,0,0,0-1Zm0,2.9h-5.9a.5.5,0,0,0-.5.4h0a.5.5,0,0,0,.5.5h5.9a.5.5,0,0,0,.5-.5h0a.5.5,0,0,0-.5-.4Zm0,2.8h-5.9a.5.5,0,0,0-.5.5.5.5,0,0,0,.5.4h5.9a.5.5,0,0,0,.5-.4.5.5,0,0,0-.5-.5Zm0,2.8h-5.9a.5.5,0,0,0,0,1h5.9a.5.5,0,0,0,0-1Z" transform="translate(-296.1 -1054.1)" fill="#fff"/></g><g id="矩形_1_拷贝_28" data-name="矩形 1 拷贝 28"><path d="M635.8,1322.9H625.3a.5.5,0,0,0-.5.5h0a.5.5,0,0,0,.5.5h10.5a.5.5,0,0,0,.5-.5h0A.5.5,0,0,0,635.8,1322.9Zm0,2.9h-5.9a.5.5,0,0,0-.5.5.5.5,0,0,0,.5.4h5.9a.5.5,0,0,0,.5-.4A.5.5,0,0,0,635.8,1325.8Zm0,2.8h-5.9a.5.5,0,0,0-.5.5h0a.5.5,0,0,0,.5.5h5.9a.5.5,0,0,0,.5-.5h0A.5.5,0,0,0,635.8,1328.6Zm0,2.8h-5.9a.5.5,0,0,0-.5.5h0a.5.5,0,0,0,.5.5h5.9a.5.5,0,0,0,.5-.5h0A.5.5,0,0,0,635.8,1331.4Zm0,2.9h-5.9a.5.5,0,0,0-.5.4.5.5,0,0,0,.5.5h5.9a.5.5,0,0,0,.5-.5A.5.5,0,0,0,635.8,1334.3Zm0,2.8h-7.7a.5.5,0,0,0-.5.5h0c0,.2.3.4.5.4h7.7a.5.5,0,0,0,.5-.4h0A.5.5,0,0,0,635.8,1337.1Zm0,2.8h-5.9a.5.5,0,0,0,0,1h5.9a.5.5,0,0,0,0-1Zm0,2.9h-5.9a.5.5,0,0,0-.5.4h0a.5.5,0,0,0,.5.5h5.9a.5.5,0,0,0,.5-.5h0A.5.5,0,0,0,635.8,1342.8Zm0,2.8h-5.9a.5.5,0,0,0-.5.5h0a.5.5,0,0,0,.5.4h5.9a.5.5,0,0,0,.5-.4h0A.5.5,0,0,0,635.8,1345.6Zm0,2.8h-5.9a.5.5,0,0,0,0,1h5.9a.5.5,0,0,0,0-1Z" transform="translate(-296.1 -1054.1)"/><path d="M635.8,1322.9H625.3a.5.5,0,0,0-.5.5h0a.5.5,0,0,0,.5.5h10.5a.5.5,0,0,0,.5-.5h0a.5.5,0,0,0-.5-.5Zm0,2.9h-5.9a.5.5,0,0,0-.5.5.5.5,0,0,0,.5.4h5.9a.5.5,0,0,0,.5-.4.5.5,0,0,0-.5-.5Zm0,2.8h-5.9a.5.5,0,0,0-.5.5h0a.5.5,0,0,0,.5.5h5.9a.5.5,0,0,0,.5-.5h0a.5.5,0,0,0-.5-.5Zm0,2.8h-5.9a.5.5,0,0,0-.5.5.5.5,0,0,0,.5.5h5.9a.5.5,0,0,0,.5-.5.5.5,0,0,0-.5-.5Zm0,2.9h-5.9a.5.5,0,0,0-.5.4.5.5,0,0,0,.5.5h5.9a.5.5,0,0,0,.5-.5.5.5,0,0,0-.5-.4Zm0,2.8h-7.7a.5.5,0,0,0-.5.5h0c0,.2.3.4.5.4h7.7a.5.5,0,0,0,.5-.4h0a.5.5,0,0,0-.5-.5Zm0,2.8h-5.9a.5.5,0,0,0,0,1h5.9a.5.5,0,0,0,0-1Zm0,2.9h-5.9a.5.5,0,0,0-.5.4h0a.5.5,0,0,0,.5.5h5.9a.5.5,0,0,0,.5-.5h0a.5.5,0,0,0-.5-.4Zm0,2.8h-5.9a.5.5,0,0,0-.5.5h0a.5.5,0,0,0,.5.4h5.9a.5.5,0,0,0,.5-.4h0a.5.5,0,0,0-.5-.5Zm0,2.8h-5.9a.5.5,0,0,0,0,1h5.9a.5.5,0,0,0,0-1Z" transform="translate(-296.1 -1054.1)" fill="#fff"/></g><g id="矩形_1_拷贝_29" data-name="矩形 1 拷贝 29"><path d="M636.3,1351.7a.5.5,0,0,0-.5-.4H625.3a.5.5,0,0,0-.5.4.5.5,0,0,0,.5.5h10.5A.5.5,0,0,0,636.3,1351.7Zm-.5,2.4h-5.9a.5.5,0,0,0-.5.5h0a.5.5,0,0,0,.5.4h5.9a.5.5,0,0,0,.5-.4h0A.5.5,0,0,0,635.8,1354.1Zm0,2.8h-5.9a.5.5,0,0,0-.5.5.5.5,0,0,0,.5.5h5.9a.5.5,0,0,0,.5-.5A.5.5,0,0,0,635.8,1356.9Zm0,2.8h-5.9a.5.5,0,0,0-.5.5h0a.5.5,0,0,0,.5.5h5.9a.5.5,0,0,0,.5-.5h0A.5.5,0,0,0,635.8,1359.7Zm0,2.9h-5.9a.5.5,0,0,0-.5.4.5.5,0,0,0,.5.5h5.9a.5.5,0,0,0,.5-.5A.5.5,0,0,0,635.8,1362.6Zm0,2.8h-7.7a.5.5,0,0,0-.5.5c0,.2.3.4.5.4h7.7a.5.5,0,0,0,.5-.4A.5.5,0,0,0,635.8,1365.4Zm0,2.8h-5.9a.5.5,0,1,0,0,1h5.9a.5.5,0,0,0,0-1Zm0,2.9h-5.9a.5.5,0,0,0-.5.4.5.5,0,0,0,.5.5h5.9a.5.5,0,0,0,.5-.5A.5.5,0,0,0,635.8,1371.1Zm0,2.8h-5.9a.5.5,0,0,0-.5.5h0a.5.5,0,0,0,.5.4h5.9a.5.5,0,0,0,.5-.4h0A.5.5,0,0,0,635.8,1373.9Zm0,2.8h-5.9a.5.5,0,1,0,0,1h5.9a.5.5,0,0,0,0-1Z" transform="translate(-296.1 -1054.1)"/><path d="M635.8,1351.3H625.3a.5.5,0,0,0-.5.4.5.5,0,0,0,.5.5h10.5a.5.5,0,0,0,.5-.5.5.5,0,0,0-.5-.4Zm0,2.8h-5.9a.5.5,0,0,0-.5.5h0a.5.5,0,0,0,.5.4h5.9a.5.5,0,0,0,.5-.4h0a.5.5,0,0,0-.5-.5Zm0,2.8h-5.9a.5.5,0,0,0-.5.5.5.5,0,0,0,.5.5h5.9a.5.5,0,0,0,.5-.5.5.5,0,0,0-.5-.5Zm0,2.8h-5.9a.5.5,0,0,0-.5.5h0a.5.5,0,0,0,.5.5h5.9a.5.5,0,0,0,.5-.5h0a.5.5,0,0,0-.5-.5Zm0,2.9h-5.9a.5.5,0,0,0-.5.4.5.5,0,0,0,.5.5h5.9a.5.5,0,0,0,.5-.5.5.5,0,0,0-.5-.4Zm0,2.8h-7.7a.5.5,0,0,0-.5.5c0,.2.3.4.5.4h7.7a.5.5,0,0,0,.5-.4.5.5,0,0,0-.5-.5Zm0,2.8h-5.9a.5.5,0,1,0,0,1h5.9a.5.5,0,0,0,0-1Zm0,2.9h-5.9a.5.5,0,0,0-.5.4.5.5,0,0,0,.5.5h5.9a.5.5,0,0,0,.5-.5.5.5,0,0,0-.5-.4Zm0,2.8h-5.9a.5.5,0,0,0-.5.5h0a.5.5,0,0,0,.5.4h5.9a.5.5,0,0,0,.5-.4h0a.5.5,0,0,0-.5-.5Zm0,2.8h-5.9a.5.5,0,1,0,0,1h5.9a.5.5,0,0,0,0-1Z" transform="translate(-296.1 -1054.1)" fill="#fff"/></g><g id="矩形_1" data-name="矩形 1"><rect x="328.3" y="325.5" width="11.9" height="0.79"/><polygon points="340.2 325.5 328.3 325.5 328.3 326.3 340.2 326.3 340.2 325.5 340.2 325.5" fill="#fff"/></g><text transform="translate(324.2 13.1) rotate(90) scale(0.99 1)" font-size="4.95" fill="#fff" font-family="AlibabaPuHuiTi-Bold, Alibaba PuHuiTi" font-weight="700">0</text><text transform="translate(324.2 40) rotate(90) scale(0.99 1)" font-size="4.95" fill="#fff" font-family="AlibabaPuHuiTi-Bold, Alibaba PuHuiTi" font-weight="700">10</text><text transform="translate(324.2 68.4) rotate(90) scale(0.99 1)" font-size="4.95" fill="#fff" font-family="AlibabaPuHuiTi-Bold, Alibaba PuHuiTi" font-weight="700">20</text><text transform="translate(324.2 96.7) rotate(90) scale(0.99 1)" font-size="4.95" fill="#fff" font-family="AlibabaPuHuiTi-Bold, Alibaba PuHuiTi" font-weight="700">30</text><text transform="translate(324.2 125) rotate(90) scale(0.99 1)" font-size="4.95" fill="#fff" font-family="AlibabaPuHuiTi-Bold, Alibaba PuHuiTi" font-weight="700">40</text><text transform="translate(324.2 153.4) rotate(90) scale(0.99 1)" font-size="4.95" fill="#fff" font-family="AlibabaPuHuiTi-Bold, Alibaba PuHuiTi" font-weight="700">50</text><text transform="translate(324.2 181.7) rotate(90) scale(0.99 1)" font-size="4.95" fill="#fff" font-family="AlibabaPuHuiTi-Bold, Alibaba PuHuiTi" font-weight="700">60</text><text transform="translate(324.2 210) rotate(90) scale(0.99 1)" font-size="4.95" fill="#fff" font-family="AlibabaPuHuiTi-Bold, Alibaba PuHuiTi" font-weight="700">70</text><text transform="translate(324.2 238.4) rotate(90) scale(0.99 1)" font-size="4.95" fill="#fff" font-family="AlibabaPuHuiTi-Bold, Alibaba PuHuiTi" font-weight="700">80</text><text transform="translate(324.2 266.7) rotate(90) scale(0.99 1)" font-size="4.95" fill="#fff" font-family="AlibabaPuHuiTi-Bold, Alibaba PuHuiTi" font-weight="700">90</text><text transform="translate(324.2 293.1) rotate(90) scale(0.99 1)" font-size="4.95" fill="#fff" font-family="AlibabaPuHuiTi-Bold, Alibaba PuHuiTi" font-weight="700">100</text><text transform="translate(324.2 321.5) rotate(90) scale(0.99 1)" font-size="4.95" fill="#fff" font-family="AlibabaPuHuiTi-Bold, Alibaba PuHuiTi" font-weight="700">110</text></svg>